<svg width="162" height="167" viewBox="0 0 162 167" fill="none" xmlns="http://www.w3.org/2000/svg">
<rect width="162" height="162" rx="33" fill="url(#paint0_linear)"/>
<g filter="url(#filter0_d)">
<path d="M107 43C107 57.3594 95.3594 69 81 69C66.6406 69 55 57.3594 55 43C55 28.6406 66.6406 17 81 17C95.3594 17 107 28.6406 107 43Z" fill="white"/>
<path d="M125 142H38C28.6112 142 21 134.389 21 125V110.215C21 72 142 72 142 110.215V125C142 134.389 134.389 142 125 142Z" fill="white"/>
</g>
<defs>
<filter id="filter0_d" x="4" y="8" width="155" height="159" filterUnits="userSpaceOnUse" color-interpolation-filters="sRGB">
<feFlood flood-opacity="0" result="BackgroundImageFix"/>
<feColorMatrix in="SourceAlpha" type="matrix" values="0 0 0 0 0 0 0 0 0 0 0 0 0 0 0 0 0 0 127 0"/>
<feOffset dy="8"/>
<feGaussianBlur stdDeviation="8.5"/>
<feColorMatrix type="matrix" values="0 0 0 0 0.135208 0 0 0 0 0.376125 0 0 0 0 0.7375 0 0 0 0.9 0"/>
<feBlend mode="multiply" in2="BackgroundImageFix" result="effect1_dropShadow"/>
<feBlend mode="normal" in="SourceGraphic" in2="effect1_dropShadow" result="shape"/>
</filter>
<linearGradient id="paint0_linear" x1="17" y1="11" x2="171" y2="174" gradientUnits="userSpaceOnUse">
<stop stop-color="#4381FE"/>
<stop offset="0.697917" stop-color="#3F97FF"/>
</linearGradient>
</defs>
</svg>
